<?xml version="1.0" encoding="UTF-8"?>
<svg version="1.1" xmlns="http://www.w3.org/2000/svg" width="1199" height="184">
<path d="M0 0 C395.67 0 791.34 0 1199 0 C1199 60.72 1199 121.44 1199 184 C803.33 184 407.66 184 0 184 C0 123.28 0 62.56 0 0 Z " fill="#FDFDFD" transform="translate(0,0)"/>
<path d="M0 0 C17.49 0 34.98 0 53 0 C56.3718066 8.09233583 59.58153456 16.12965314 62.52734375 24.37109375 C63.15944763 26.12774101 63.15944763 26.12774101 63.80432129 27.9198761 C64.71146185 30.44208346 65.61752823 32.96464436 66.521698 35.48791504 C67.96520236 39.51617916 69.41307737 43.5428641 70.86157227 47.56933594 C72.8909464 53.21155281 74.91868349 58.85435517 76.9453125 64.49755859 C81.53523504 77.27718665 86.13828769 90.05208381 90.74387741 102.82607269 C91.43597369 104.74576642 92.12792487 106.6655124 92.81985474 108.58526611 C100.80915357 130.74951323 108.8700667 152.88696765 117 175 C116.97474243 173.76080811 116.97474243 173.76080811 116.94897461 172.49658203 C116.90735941 169.38306819 116.90690188 166.27280824 116.93286133 163.15917969 C116.93740092 161.16844926 116.8959671 159.17778292 116.85351562 157.1875 C116.94217467 150.16570342 117.41767917 145.78093205 122.23828125 140.47265625 C123.81171773 138.96721065 125.39777905 137.47477349 127 136 C127.97301174 134.8544922 128.92098141 133.68662614 129.828125 132.48828125 C135.11653451 125.55364104 140.62332666 118.88929221 146.36962891 112.32983398 C150.02532332 108.14932297 153.54055918 103.8873067 156.9765625 99.5234375 C160.25941293 95.42938078 163.68219333 91.45574997 167.09375 87.46875 C170.80379211 83.04063523 174.39119706 78.51100368 178 74 C148.795 73.505 148.795 73.505 119 73 C119 60.79 119 48.58 119 36 C155.63 36 192.26 36 230 36 C230 73 230 73 221 83 C219.54418203 84.73479114 218.10189527 86.48127383 216.6875 88.25 C213.19567292 92.56450885 209.62423581 96.79709511 206 101 C202.44532786 105.12455611 198.9320737 109.27208312 195.5 113.5 C191.61889381 118.28107284 187.6332193 122.96280005 183.59960938 127.61523438 C178.95321787 132.99425193 174.50817278 138.49001105 170 144 C200.69 144.495 200.69 144.495 232 145 C232 157.54 232 170.08 232 183 C179.2 183 126.4 183 72 183 C67.4921781 171.73044525 67.4921781 171.73044525 66.078125 167.5 C65.77519531 166.59378906 65.47226562 165.68757812 65.16015625 164.75390625 C64.70962891 163.39072266 64.70962891 163.39072266 64.25 162 C63.77626953 160.59041016 63.77626953 160.59041016 63.29296875 159.15234375 C62.99519531 158.25644531 62.69742188 157.36054688 62.390625 156.4375 C62.12282227 155.63183594 61.85501953 154.82617188 61.57910156 153.99609375 C61 152 61 152 61 150 C38.23 150.33 15.46 150.66 -8 151 C-11.3 160.9 -14.6 170.8 -18 181 C-19 182 -19 182 -20.86659241 182.12025452 C-21.68155685 182.11803391 -22.4965213 182.11581329 -23.33618164 182.11352539 C-24.71750023 182.11341209 -24.71750023 182.11341209 -26.12672424 182.11329651 C-27.12775681 182.10813522 -28.12878937 182.10297394 -29.16015625 182.09765625 C-30.17975937 182.0962413 -31.19936249 182.09482635 -32.24986267 182.09336853 C-35.52077107 182.08775097 -38.79161213 182.0751955 -42.0625 182.0625 C-44.27408756 182.05748726 -46.48567618 182.05292396 -48.69726562 182.04882812 C-54.13153357 182.03777584 -59.56576197 182.02102063 -65 182 C-63.66293177 175.36703541 -61.79314764 169.18278656 -59.46484375 162.8359375 C-59.1145813 161.86724228 -58.76431885 160.89854706 -58.40344238 159.90049744 C-57.25330311 156.72342821 -56.09541592 153.54924228 -54.9375 150.375 C-54.12390105 148.13194647 -53.31083993 145.88869779 -52.49829102 143.64526367 C-50.82330287 139.02305625 -49.14533445 134.40194793 -47.46484375 129.78173828 C-45.17737666 123.49131538 -42.89907892 117.19761747 -40.625 110.90234375 C-39.92334469 108.96012195 -39.22168457 107.01790188 -38.52001953 105.07568359 C-38.17618225 104.1239325 -37.83234497 103.1721814 -37.47808838 102.19158936 C-35.73467426 97.36792888 -33.988308 92.54533755 -32.2421875 87.72265625 C-29.32661991 79.6694495 -26.41580032 71.61454044 -23.5078125 63.55859375 C-10.81433753 28.40122514 -10.81433753 28.40122514 -5 12.6875 C-4.39490601 11.05119629 -4.39490601 11.05119629 -3.77758789 9.38183594 C-1.13124214 2.26248428 -1.13124214 2.26248428 0 0 Z " fill="#242527" transform="translate(908,0)"/>
<path d="M0 0 C78.54 0 157.08 0 238 0 C238 60.72 238 121.44 238 184 C165.73 184 93.46 184 19 184 C19 183.67 19 183.34 19 183 C71.8 183 124.6 183 179 183 C179 170.46 179 157.92 179 145 C158.21 145 137.42 145 116 145 C119.83316509 139.88911321 123.62887052 134.97985864 127.8125 130.1875 C131.43353848 126.00318887 135.01418257 121.79853989 138.5 117.5 C142.4337857 112.65403211 146.48447759 107.91901472 150.55859375 103.19140625 C153.58958284 99.66682097 156.56992581 96.10951168 159.5 92.5 C164.8918255 85.90999106 170.45871113 79.46483702 176 73 C176.33 60.79 176.66 48.58 177 36 C140.37 36 103.74 36 66 36 C66 48.21 66 60.42 66 73 C85.8 73 105.6 73 126 73 C122.33080445 77.89226073 118.78120428 82.52586614 114.8125 87.125 C110.96102299 91.61992816 107.24675615 96.19337862 103.625 100.875 C99.15038702 106.64770338 94.44174948 112.17760666 89.62988281 117.67089844 C85.96224588 121.86467576 82.39089555 126.0994779 79.05078125 130.5625 C77 133 77 133 74.10546875 135.375 C68.56477428 140.17977249 65.92114486 144.2916354 65.22254944 151.78857422 C64.63929077 160.51434573 64.7352568 169.26347449 65 178 C63.13810617 175.20715926 62.14637655 172.94026851 61.02319336 169.80566406 C60.637099 168.73450348 60.25100464 167.6633429 59.85321045 166.5597229 C59.43629944 165.39017059 59.01938843 164.22061829 58.58984375 163.015625 C57.91644226 161.1423633 57.24304042 159.26910173 56.56962395 157.39584541 C55.85137978 155.39540772 55.13515316 153.39425828 54.41952515 151.3928833 C52.92668177 147.21799736 51.42832511 143.04510427 49.92895508 138.87255859 C48.40599882 134.63360477 46.883372 130.39453452 45.36271667 126.15475464 C41.32979031 114.91051082 37.27534509 103.67415966 33.20773315 92.44241333 C32.18684325 89.62318636 31.16667161 86.8037005 30.14672852 83.98413086 C26.96010443 75.17532283 23.77112537 66.36737164 20.57936096 57.5604248 C19.04595999 53.32888039 17.51336995 49.0970425 15.98086548 44.86517334 C15.26054935 42.87678517 14.53984545 40.88853741 13.81869507 38.90045166 C12.81303356 36.12800335 11.8087441 33.35506112 10.8046875 30.58203125 C10.52300217 29.8065947 10.24131683 29.03115814 9.95109558 28.23222351 C6.55651433 18.84777497 3.2973254 9.42092971 0 0 Z " fill="#FEFEFE" transform="translate(961,0)"/>
<path d="M0 0 C0.84433594 0.52464844 1.68867188 1.04929687 2.55859375 1.58984375 C6.97523584 4.64502553 9.40601851 7.68722222 13 12 C13.33 6.06 13.66 0.12 14 -6 C28.85 -6 43.7 -6 59 -6 C59 42.51 59 91.02 59 141 C44.15 141 29.3 141 14 141 C13.67 134.73 13.34 128.46 13 122 C12.05125 123.175625 11.1025 124.35125 10.125 125.5625 C1.54254403 135.29962374 -9.15026298 140.57821281 -22 142 C-41.21447297 143.11546741 -57.35862651 140.15362376 -72.25 126.9375 C-81.90008588 117.90304205 -88.12386602 106.57083453 -92 94 C-92.47759766 92.50919922 -92.47759766 92.50919922 -92.96484375 90.98828125 C-98.54570207 70.07935124 -96.54442246 45.02643721 -86 26 C-77.46822961 11.42734391 -67.22731401 0.91596074 -51 -5 C-50.01515625 -5.3609375 -49.0303125 -5.721875 -48.015625 -6.09375 C-32.35074874 -10.38256373 -13.72758219 -8.59058557 0 0 Z " fill="#232426" transform="translate(280,42)"/>
<path d="M0 0 C19.655625 -0.12375 39.31125 -0.2475 59.5625 -0.375 C65.74299072 -0.42962402 71.92348145 -0.48424805 78.29125977 -0.54052734 C85.9041748 -0.56762695 85.9041748 -0.56762695 89.4808197 -0.57266235 C91.95106004 -0.58180808 94.42127548 -0.60276858 96.89134216 -0.63345337 C123.39890108 -0.94596416 123.39890108 -0.94596416 136 6 C137.61612938 6.81629379 137.61612938 6.81629379 139.26490784 7.64907837 C154.66246888 15.594834 165.57182115 28.95362575 173.375 44.125 C173.70927002 44.76985352 174.04354004 45.41470703 174.38793945 46.07910156 C176.11285356 49.58845552 177.29602557 52.91656818 178.10400391 56.74951172 C178.27461334 57.54880096 178.44522278 58.34809021 178.6210022 59.17160034 C178.74607147 59.77497223 178.87114075 60.37834412 179 61 C172.15063046 61.25420341 165.30248124 61.4289275 158.44946289 61.54931641 C156.12022455 61.59951202 153.79129987 61.66768752 151.46313477 61.75439453 C148.10875148 61.87616373 144.75853864 61.93249799 141.40234375 61.9765625 C140.36665756 62.02817535 139.33097137 62.07978821 138.26390076 62.13296509 C135.20656501 62.13532028 132.89011688 62.01061282 130 61 C127.69594982 58.6708267 126.11894421 56.35933521 124.48439026 53.52548218 C119.10707285 44.37672955 109.67130367 41.36619779 100.01171875 38.38671875 C87.94783476 36.06764202 75.73732926 38.55969852 65.5625 45.3125 C55.15020167 53.28573006 48.47373211 64.86286091 46.375 77.875 C44.72724419 96.00031386 46.40047781 113.56558837 57.91796875 128.484375 C62.29992948 133.13747502 67.17596836 136.40717647 73 139 C73.71285156 139.3196875 74.42570312 139.639375 75.16015625 139.96875 C86.37671789 144.12445723 100.27325109 143.52151118 111.09765625 138.67578125 C116.57530025 135.51305006 122.16971361 131.52620415 125.14128113 125.80122375 C128.53993765 119.47722032 128.53993765 119.47722032 132.42936707 118.20596313 C135.42531001 117.95789301 138.30140347 117.98706138 141.3046875 118.12109375 C142.38380402 118.13382828 143.46292053 118.14656281 144.57473755 118.15968323 C148.01047608 118.20993752 151.44086772 118.32282056 154.875 118.4375 C157.20825687 118.48265668 159.54159681 118.52371917 161.875 118.56054688 C167.58514756 118.65960135 173.29219191 118.8100524 179 119 C178.70701201 120.41712837 178.40785875 121.83298276 178.10620117 123.24829102 C177.85733406 124.43117455 177.85733406 124.43117455 177.60343933 125.63795471 C176.6614517 129.32518113 175.06433701 132.57500884 173.3125 135.9375 C172.95655762 136.6298877 172.60061523 137.32227539 172.23388672 138.03564453 C161.67657798 158.17769285 145.07980041 172.37478041 123.3125 179.25 C111.77613298 182.56378361 100.89581841 184.16178547 88.89038086 184.11352539 C87.41679407 184.11370619 87.41679407 184.11370619 85.91343784 184.11389065 C82.76388266 184.11315001 79.61438821 184.10556084 76.46484375 184.09765625 C74.508179 184.0961842 72.55151386 184.09516511 70.59484863 184.09460449 C63.37572638 184.08938214 56.15661258 184.07542088 48.9375 184.0625 C32.788125 184.041875 16.63875 184.02125 0 184 C0 123.28 0 62.56 0 0 Z " fill="#232426" transform="translate(0,0)"/>
<path d="M0 0 C1.83691406 -0.01836914 1.83691406 -0.01836914 3.7109375 -0.03710938 C23.46837579 -0.06883974 40.48356817 5.77980084 54.8125 19.671875 C69.1841233 34.89444968 74.29043773 54.15690396 74.375 74.625 C74.37967285 75.43114746 74.3843457 76.23729492 74.38916016 77.06787109 C74.37297235 82.94155531 74.37297235 82.94155531 73.25 85.1875 C39.92 85.1875 6.59 85.1875 -27.75 85.1875 C-23.95370881 100.54354557 -23.95370881 100.54354557 -12.93359375 110.05859375 C-6.47443664 113.39794331 1.95404925 113.24242282 8.890625 111.5390625 C14.95212588 109.12683256 19.32509736 105.03730528 22.25 99.1875 C38.09 99.1875 53.93 99.1875 70.25 99.1875 C65.32537386 117.24446252 56.28996396 130.26221843 40.25 140.1875 C21.41358077 150.178087 -1.07263627 152.65896074 -21.7890625 147.16015625 C-31.15426328 144.08372486 -38.96490571 140.26753969 -46.75 134.1875 C-47.43707031 133.67703125 -48.12414062 133.1665625 -48.83203125 132.640625 C-58.57164922 124.87966709 -64.66189237 113.76226257 -68.75 102.1875 C-69.09933594 101.20910156 -69.44867188 100.23070312 -69.80859375 99.22265625 C-76.33816831 78.17087438 -73.93074557 53.62839181 -63.75 34.1875 C-53.27413898 17.3250395 -38.79123631 6.61786482 -19.75 1.1875 C-13.16442913 -0.09667771 -6.68730926 0.00347573 0 0 Z " fill="#232426" transform="translate(521.75,34.8125)"/>
<path d="M0 0 C2.01655983 0.01606821 4.03110838 0.00007541 6.04760742 -0.01904297 C24.9960173 0.03687954 41.35350815 5.94347733 55.2722168 18.89111328 C56.0353418 19.71611328 56.7984668 20.54111328 57.5847168 21.39111328 C58.03073242 21.83197266 58.47674805 22.27283203 58.9362793 22.72705078 C75.5841967 40.26523114 75.5847168 62.14673368 75.5847168 85.39111328 C41.9247168 85.39111328 8.2647168 85.39111328 -26.4152832 85.39111328 C-22.73289889 99.07349759 -22.73289889 99.07349759 -18.4152832 104.39111328 C-18.4152832 105.05111328 -18.4152832 105.71111328 -18.4152832 106.39111328 C-17.83520508 106.67728516 -17.25512695 106.96345703 -16.6574707 107.25830078 C-15.27023595 107.95916852 -13.89650382 108.68848891 -12.5480957 109.46142578 C-5.27944858 113.27958672 2.8849396 113.7500653 10.86206055 111.84814453 C15.80660405 109.88980236 19.77052055 107.11537344 22.04858398 102.29101562 C24.5847168 99.39111328 24.5847168 99.39111328 26.79650879 98.86334229 C29.70677781 98.69480502 32.56141112 98.7175064 35.4753418 98.80517578 C37.06496735 98.81791031 37.06496735 98.81791031 38.68670654 98.8309021 C42.07041223 98.86448038 45.45173189 98.93977286 48.8347168 99.01611328 C51.12895321 99.04620693 53.42322698 99.07358377 55.7175293 99.09814453 C61.34073876 99.1642859 66.96255734 99.2646792 72.5847168 99.39111328 C71.8226637 101.60825287 71.05344023 103.82246736 70.2800293 106.03564453 C69.85222168 107.26903564 69.42441406 108.50242676 68.98364258 109.77319336 C63.17648673 124.7917348 50.9186962 136.42934575 36.5847168 143.39111328 C16.33908274 151.37796748 -8.01980484 152.79024153 -28.4777832 144.56152344 C-37.3579084 140.62310253 -44.63138505 135.37344356 -51.4152832 128.39111328 C-52.04821289 127.77880859 -52.68114258 127.16650391 -53.33325195 126.53564453 C-68.70435546 110.6216323 -71.05801021 87.76404771 -70.72387695 66.80126953 C-70.03919494 47.37164191 -61.79447034 30.50276467 -47.9230957 16.95751953 C-34.33812998 5.00516839 -17.90105162 -0.16918478 0 0 Z " fill="#232426" transform="translate(668.415283203125,34.60888671875)"/>
<path d="M0 0 C36.63 0 73.26 0 111 0 C111 37 111 37 102 47 C100.54418203 48.73479114 99.10189527 50.48127383 97.6875 52.25 C94.19567292 56.56450885 90.62423581 60.79709511 87 65 C83.44532786 69.12455611 79.9320737 73.27208312 76.5 77.5 C72.57408413 82.33627318 68.53222596 87.06245673 64.46557617 91.7800293 C60.44565255 96.45365166 56.52547398 101.19828887 52.64453125 105.98828125 C51 108 51 108 50 109 C70.46 109.33 90.92 109.66 112 110 C112 121.88 112 133.76 112 146 C75.04 146 38.08 146 0 146 C0 109 0 109 6 99.8125 C9.6171875 96.65234375 9.6171875 96.65234375 11.39355469 95.29248047 C13.69805259 93.43837532 15.36316282 91.23763103 17.125 88.875 C20.1685089 85.00961529 23.31018903 81.24437234 26.5 77.5 C29.726434 73.71110968 32.90927392 69.90140833 36 66 C39.91680921 61.05583099 43.99341186 56.26071145 48.09375 51.46875 C51.80379211 47.04063523 55.39119706 42.51100368 59 38 C29.795 37.505 29.795 37.505 0 37 C0 24.79 0 12.58 0 0 Z " fill="#222325" transform="translate(1027,36)"/>
<path d="M0 0 C0 15.51 0 31.02 0 47 C-7.26 47.33 -14.52 47.66 -22 48 C-33.31633179 51.1921965 -33.31633179 51.1921965 -41.34765625 59.02734375 C-44.4140396 64.9293074 -45.15266145 70.07867054 -45.20532227 76.70605469 C-45.21522186 77.47717087 -45.22512146 78.24828705 -45.23532104 79.04277039 C-45.26685078 81.58577427 -45.29165968 84.12879682 -45.31640625 86.671875 C-45.33698314 88.43736246 -45.35797981 90.20284507 -45.37937927 91.96832275 C-45.43452399 96.61086091 -45.48396675 101.25344298 -45.53222656 105.89605713 C-45.59133854 111.4686716 -45.65752465 117.04120599 -45.72252655 122.61375427 C-45.82044045 131.07578719 -45.90936189 139.53787192 -46 148 C-60.85 148 -75.7 148 -91 148 C-91 99.49 -91 50.98 -91 1 C-76.15 1 -61.3 1 -46 1 C-45.67 8.26 -45.34 15.52 -45 23 C-43.72125 21.494375 -42.4425 19.98875 -41.125 18.4375 C-29.56161628 5.60341477 -17.11938031 0 0 0 Z " fill="#242527" transform="translate(846,35)"/>
<path d="M0 0 C0 15.51 0 31.02 0 47 C-10.395 47.495 -10.395 47.495 -21 48 C-33.16482003 51.64466188 -33.16482003 51.64466188 -41.4375 60.5 C-43.97313518 66.1798228 -44.15534587 71.6953923 -44.20532227 77.84130859 C-44.21522186 78.60296326 -44.22512146 79.36461792 -44.23532104 80.14935303 C-44.26672861 82.649017 -44.29161078 85.14869994 -44.31640625 87.6484375 C-44.33699373 89.38864618 -44.35799066 91.12885006 -44.37937927 92.86904907 C-44.43441477 97.43593444 -44.48390528 102.00286354 -44.53222656 106.56982422 C-44.59143929 112.05655166 -44.65756477 117.54319965 -44.72252655 123.02986145 C-44.82030283 131.3531922 -44.90931828 139.67657532 -45 148 C-59.85 148 -74.7 148 -90 148 C-90 99.49 -90 50.98 -90 1 C-75.15 1 -60.3 1 -45 1 C-44.67 8.26 -44.34 15.52 -44 23 C-42.741875 21.515 -41.48375 20.03 -40.1875 18.5 C-28.81885826 5.9196535 -16.88932325 0 0 0 Z " fill="#242527" transform="translate(449,35)"/>
<path d="M0 0 C3.56710485 2.17207928 6.47192276 4.61770325 9.1875 7.8125 C9.868125 8.534375 10.54875 9.25625 11.25 10 C18.69917338 20.8133162 18.8010993 33.54766165 16.59765625 46.19921875 C14.0138154 54.54609635 7.89291799 61.83975667 0.4375 66.375 C-7.39119485 69.83769195 -17.54198841 70.36510777 -25.76953125 67.94140625 C-34.35261351 63.92014651 -40.46608622 57.69397733 -43.8125 48.8125 C-47.16553155 38.93432431 -47.56984143 25.87012963 -43.91015625 15.98046875 C-35.78573975 -0.06597666 -16.83018639 -8.13459009 0 0 Z " fill="#FDFDFD" transform="translate(276.8125,76.1875)"/>
<path d="M0 0 C6.89420023 7.20757297 8.31327622 14.25571067 8.18945312 24.0625 C8.12661133 26.0115625 8.12661133 26.0115625 8.0625 28 C8.03735769 29.35152073 8.01455508 30.70308709 7.99414062 32.0546875 C7.93566513 35.329315 7.85375192 38.60154709 7.75 41.875 C3.05439657 41.94966101 -1.64085443 42.00384101 -6.33691406 42.03979492 C-7.93137641 42.05479745 -9.52579808 42.07520621 -11.12011719 42.10131836 C-13.42393077 42.13808134 -15.7271946 42.15481155 -18.03125 42.16796875 C-18.73366821 42.18345261 -19.43608643 42.19893646 -20.15979004 42.21488953 C-27.89691624 42.21746735 -34.07617025 39.66851302 -39.77734375 34.421875 C-45.27063574 28.65173275 -45.61619204 22.54385481 -45.5234375 14.91015625 C-44.8947259 7.93145746 -41.20083928 3.01401074 -36.14453125 -1.6484375 C-25.19267052 -10.18411452 -10.72259236 -7.01092578 0 0 Z " fill="#1FBF74" transform="translate(1191.25,142.125)"/>
<path d="M0 0 C0.33 0 0.66 0 1 0 C1.07476562 0.81339844 1.14953125 1.62679687 1.2265625 2.46484375 C3.32152612 20.72388939 10.28916796 36.82935849 22 51 C22.639375 51.83144531 23.27875 52.66289062 23.9375 53.51953125 C30.8477583 61.83016387 40.58999971 67.01102943 50 72 C50.76957031 72.4125 51.53914063 72.825 52.33203125 73.25 C62.20381279 78.08207662 74.08246137 80.47511834 85 81 C85 81.33 85 81.66 85 82 C56.95 82 28.9 82 0 82 C0 54.94 0 27.88 0 0 Z " fill="#FCFDFD" transform="translate(0,102)"/>
<path d="M0 0 C2.48797983 2.48797983 3.027772 4.55127955 4.15478516 7.88671875 C4.57506989 9.12139893 4.99535461 10.3560791 5.42837524 11.62817383 C5.88215391 12.98121005 6.33571102 14.33432059 6.7890625 15.6875 C7.2565987 17.07005126 7.7245713 18.45245501 8.19296265 19.8347168 C9.17334144 22.73200804 10.14970963 25.6306092 11.12304688 28.53027344 C12.37234785 32.2516085 13.62952314 35.97022198 14.88944435 39.68797302 C15.8561062 42.54210069 16.81961286 45.39728503 17.7820549 48.25283813 C18.24462408 49.62465336 18.70794322 50.99621594 19.17201614 52.36752319 C19.81906842 54.28174548 20.46164731 56.19747813 21.10400391 58.11328125 C21.47103424 59.20423096 21.83806458 60.29518066 22.21621704 61.41918945 C23 64 23 64 23 66 C8.15 66 -6.7 66 -22 66 C-18.62414087 53.62184984 -18.62414087 53.62184984 -17.02294922 48.81005859 C-16.66602997 47.73299652 -16.30911072 46.65593445 -15.94137573 45.54623413 C-15.56626862 44.42496124 -15.1911615 43.30368835 -14.8046875 42.1484375 C-14.21531906 40.37746201 -14.21531906 40.37746201 -13.61404419 38.57070923 C-12.79023096 36.09791759 -11.96492392 33.62562315 -11.13818359 31.15380859 C-10.07783586 27.98178265 -9.02149586 24.80848597 -7.96742058 21.63437462 C-6.95774764 18.59642609 -5.94352793 15.5599973 -4.9296875 12.5234375 C-4.55053192 11.3819223 -4.17137634 10.2404071 -3.7807312 9.06430054 C-3.43011627 8.01876007 -3.07950134 6.9732196 -2.71826172 5.89599609 C-2.40976288 4.97209076 -2.10126404 4.04818542 -1.78341675 3.09628296 C-1 1 -1 1 0 0 Z " fill="#FBFBFB" transform="translate(934,49)"/>
<path d="M0 0 C20.79 0 41.58 0 63 0 C60.1926543 1.8715638 57.82216678 2.87904664 54.6875 4.0625 C33.36172587 12.85583613 17.19183322 29.23992798 7.55859375 50.125 C4.2223079 58.25159479 2.46763337 66.37317946 1 75 C0.67 75 0.34 75 0 75 C0 50.25 0 25.5 0 0 Z " fill="#FDFDFD" transform="translate(0,0)"/>
<path d="M0 0 C5.55036042 3.82000956 9.13588525 7.47559838 11 14 C11 16.31 11 18.62 11 21 C-7.15 21 -25.3 21 -44 21 C-42.90229275 12.21834204 -40.61960745 7.10793794 -34.1875 1.125 C-23.74133597 -5.83910935 -10.92958014 -6.24547437 0 0 Z " fill="#FCFCFC" transform="translate(687,74)"/>
<path d="M0 0 C6.12793832 6.30302227 7.17087844 10.10040596 8.1875 19.25 C-10.2925 19.25 -28.7725 19.25 -47.8125 19.25 C-45.53367714 8.99529712 -42.33904238 3.21857967 -33.8125 -2.75 C-22.44466298 -8.53363638 -10.53302086 -6.55387965 0 0 Z " fill="#FCFCFC" transform="translate(541.8125,75.75)"/>
<path d="M0 0 C0.33 0 0.66 0 1 0 C1 6.27 1 12.54 1 19 C-5.6 19 -12.2 19 -19 19 C-17.68 18.34 -16.36 17.68 -15 17 C-8.39596424 13.37631437 -3.50900791 9.88030606 -0.6875 2.625 C-0.460625 1.75875 -0.23375 0.8925 0 0 Z " fill="#F5FCF8" transform="translate(1198,165)"/>
</svg>
